<svg xmlns="http://www.w3.org/2000/svg" viewBox="-21978.881 29.847 20.881 19.953"><path d="M-21958 42.086V49.8h-4.466v-7.192c0-1.8-.638-3.045-2.262-3.045a2.445 2.445 0 00-2.291 1.624 3.175 3.175 0 00-.145 1.1v7.511h-4.5s.058-12.209 0-13.457h4.466v1.916c0 .029-.029.029-.029.058h.029v-.058a4.438 4.438 0 014.031-2.233c2.958 0 5.162 1.914 5.162 6.061zm-18.358-12.239a2.345 2.345 0 00-2.523 2.32 2.311 2.311 0 002.465 2.32h.029a2.328 2.328 0 002.523-2.32 2.3 2.3 0 00-2.494-2.32zm-2.262 19.953h4.466V36.347h-4.466zm0 0"/></svg>